<svg xmlns="http://www.w3.org/2000/svg" viewBox="0 0 490.17 156.38"><defs><style>.cls-1{fill:#fff;}</style></defs><g id="Layer_2" data-name="Layer 2"><g id="Layer_1-2" data-name="Layer 1"><g id="Layer_2-2" data-name="Layer 2"><g id="Layer_1-2-2" data-name="Layer 1-2"><g id="full_logo" data-name="full logo"><g id="Group_18" data-name="Group 18"><g id="Group_16" data-name="Group 16"><path id="Path_9" data-name="Path 9" class="cls-1" d="M178.53,113.51c-3.2.44-3.49.59-5.56,4.53s-6.19,12.68-12.54,26.36h-1.76l-3.87-24.3h-.2l-11.68,24.29h-1.76L138.21,118c-.44-3.93-.64-4.12-4-4.47l.35-1.53h11.31l-.35,1.53-1.23.19c-2.06.3-2.36.5-2.06,3.1l2.11,20.37h.1L156,112.53h1.61l4,24.69h.11c3-6.54,7.13-15.1,9.09-20.26,1-2.55.74-2.95-1.86-3.25l-1.23-.19.35-1.53h10.82Z"/><path id="Path_10" data-name="Path 10" class="cls-1" d="M235.63,139.73a13.28,13.28,0,0,1-7.13,4.81c-1.28,0-1.76-1.32-.89-5.12.94-3.64,1.82-7.32,2.66-10.9.68-2.82.44-3.49-.35-3.49-2.17,0-7.87,5.95-10.33,10.08-.64,2.46-1.43,5.46-2,8.46a20,20,0,0,0-3.64,1l-.35-.39c1.38-5.28,2.85-11.31,4.09-16.68.35-1.52.19-1.92-.1-1.92a9.27,9.27,0,0,0-3.25,2.32l-.74-1.43a13.8,13.8,0,0,1,7.13-4.72c1.18,0,1.43,1.67.45,5.71l-.89,3.73h.1a30.89,30.89,0,0,1,8.86-8.26,7,7,0,0,1,3.44-1.18c1.23,0,2.7.74,1.23,7-.79,3.34-1.62,6.78-2.46,10.23-.35,1.37-.25,1.76.1,1.76a7.87,7.87,0,0,0,3.29-2.37Z"/><path id="Path_11" data-name="Path 11" class="cls-1" d="M266.66,121.72c2.26,0,3.94,1.57,3.94,2.86a2.6,2.6,0,0,1-1.28,2.11.75.75,0,0,1-1.07-.11h0l-.07-.09a4.74,4.74,0,0,0-3.87-2.27,2.68,2.68,0,0,0-2.66,2.65h0c0,1.73,1.43,3,3.25,4.28,3,2.17,4.22,3.64,4.22,5.85,0,3.79-4.87,7.48-9.05,7.48-2.36,0-5.11-1.87-5.11-3.59a2.48,2.48,0,0,1,1.42-2.11c.7-.35,1.08-.25,1.38.14a6.16,6.16,0,0,0,4.77,3,3.06,3.06,0,0,0,3.25-2.86h0c0-1.24-.55-2.26-3-4.14-2.26-1.67-4.37-3.44-4.37-6a6.31,6.31,0,0,1,2.56-4.77,10.23,10.23,0,0,1,5.6-2.42Z"/><path id="Path_12" data-name="Path 12" class="cls-1" d="M282.11,121.72c2.25,0,3.93,1.57,3.93,2.86a2.56,2.56,0,0,1-1.28,2.11.75.75,0,0,1-1.07-.11h0l-.07-.09a4.74,4.74,0,0,0-3.87-2.27,2.65,2.65,0,0,0-2.65,2.65h0c0,1.73,1.42,3,3.24,4.28,3,2.17,4.23,3.64,4.23,5.85,0,3.79-4.87,7.48-9.05,7.48-2.36,0-5.12-1.87-5.12-3.59a2.47,2.47,0,0,1,1.43-2.11c.71-.35,1.09-.25,1.38.14a6.16,6.16,0,0,0,4.77,3,3,3,0,0,0,3.23-2.75.34.34,0,0,0,0-.1h0c0-1.24-.54-2.26-3-4.14-2.27-1.67-4.38-3.44-4.38-6a6.36,6.36,0,0,1,2.55-4.77,10.33,10.33,0,0,1,5.61-2.42Z"/><path id="Path_13" data-name="Path 13" class="cls-1" d="M323.27,136a48.58,48.58,0,0,1-3.94,7.53,37.78,37.78,0,0,1-8.66,1.17,13.34,13.34,0,0,1-14.45-14.21c0-11.7,9.09-19.23,20.55-19.23a24.58,24.58,0,0,1,8.56,1.58c-.15,2.56-.19,5.35-.39,7.71l-1.67.15c-.25-5.9-2.76-7.52-7.68-7.52-8.56,0-14.46,8.06-14.46,17.17,0,7.08,3.59,12.48,10.13,12.48,4.87,0,7.68-3.15,10.52-7.62Z"/><path id="Path_14" data-name="Path 14" class="cls-1" d="M339,121.72c4.14,0,6.64,2.76,6.64,7.82a15.88,15.88,0,0,1-5.31,11.91,12.44,12.44,0,0,1-7.74,3.09c-4.72,0-6.63-3.73-6.63-7.76a15,15,0,0,1,7.47-13.43,12.59,12.59,0,0,1,5.51-1.63Zm-1.72,2.07a3.93,3.93,0,0,0-1.87.44c-2,.88-5.16,4.87-5.16,12.25,0,3.63,1.52,6,4.18,6a4.11,4.11,0,0,0,1.62-.36c2.61-1.13,5.31-6.24,5.31-12.49,0-4-1.72-5.8-4-5.8Z"/><path id="Path_15" data-name="Path 15" class="cls-1" d="M383.13,139.73a13.75,13.75,0,0,1-7.18,4.81c-1.28,0-1.72-1.47-.89-5L377.82,128c.49-2.22.25-3-.54-3-2.36,0-8.31,6.93-10,10.13-.64,2.36-1.38,5.7-2,8.56a18,18,0,0,0-3.69.88l-.3-.36c1.24-5,2.51-10.08,3.55-15,.7-3.2.63-4.28-.4-4.28-2.46,0-8.44,7.08-10,10.18-.64,2.22-1.43,5.56-2,8.51a19.71,19.71,0,0,0-3.64.88l-.39-.35c1.52-5.61,2.9-11.17,4.13-16.73.39-1.82.25-2-.05-2.06a11.22,11.22,0,0,0-3.44,2.55l-.69-1.37a13.64,13.64,0,0,1,7.13-4.88c1.32,0,1.52,1.82.49,6l-.83,3.45h.09a30,30,0,0,1,8.71-8.36,6.07,6.07,0,0,1,3.19-1.06c1.43,0,2.71,1.28,1.33,7.44l-.47,2h.11a28.49,28.49,0,0,1,8.95-8.36,6.25,6.25,0,0,1,3.1-1c1.08,0,2.75.6,1.17,7.13l-2.46,10.34c-.29,1.18-.2,1.52.1,1.52a8.61,8.61,0,0,0,3.44-2.32Z"/><path id="Path_16" data-name="Path 16" class="cls-1" d="M394.3,122.37a18.62,18.62,0,0,1,4.58-.65c5.16,0,7.22,2.46,7.22,7a15.7,15.7,0,0,1-4.22,10.13,19.22,19.22,0,0,1-9.24,5.7,8.29,8.29,0,0,1-3-.49l-1.32,6.68c-.54,2.61-.29,3.06,2.16,3.3l1.23.1-.2,1.48L380,156.2l.25-1.47c2.95-.54,3.59-1,4.22-3.79,1.82-8.51,3.69-17,5.51-25.38a21,21,0,0,0-4.08,1.82l-.35-1.47a28.19,28.19,0,0,1,4.81-2.51l.59-2.26a17.31,17.31,0,0,1,3.64-2.91l.49.35Zm2.46,1.67a16.28,16.28,0,0,0-2.95.35l-3.34,16.18a4.44,4.44,0,0,0,3.1,1.62c3.49,0,8.26-6.48,8.26-12.73,0-4.34-2.31-5.41-5-5.41Z"/><path id="Path_17" data-name="Path 17" class="cls-1" d="M453.5,139.73a13.19,13.19,0,0,1-7.13,4.81c-1.28,0-1.76-1.32-.89-5.12.94-3.64,1.82-7.32,2.65-10.9.71-2.82.45-3.49-.35-3.49-2.17,0-7.87,5.95-10.33,10.08-.64,2.46-1.41,5.46-2,8.46a19.93,19.93,0,0,0-3.63,1l-.36-.39c1.38-5.28,2.86-11.31,4.08-16.68.36-1.52.2-1.92-.09-1.92a9.27,9.27,0,0,0-3.25,2.32l-.74-1.43a13.8,13.8,0,0,1,7.13-4.72c1.18,0,1.43,1.67.44,5.71l-.88,3.73h.1a31,31,0,0,1,8.85-8.26,7,7,0,0,1,3.45-1.18c1.22,0,2.7.74,1.22,7-.79,3.34-1.62,6.78-2.46,10.23-.35,1.37-.25,1.76.1,1.76a7.79,7.79,0,0,0,3.29-2.37Z"/><path id="Path_18" data-name="Path 18" class="cls-1" d="M465.11,140c2.11-3.17,6.64-9.8,6.59-13.29a5.59,5.59,0,0,0-.54-2.31,2,2,0,0,1,0-1.28,2.67,2.67,0,0,1,2.21-1.43c1.19,0,2.07,1.14,2.07,2.76a11.18,11.18,0,0,1-1.82,5.36,163.81,163.81,0,0,1-8.95,13.77,111.85,111.85,0,0,1-8.8,11.42l-5.31,1.38-.45-1.28a42.87,42.87,0,0,0,11.61-10.77,145.3,145.3,0,0,0-1.52-16c-.36-2.4-.64-2.89-1.08-2.89a8.93,8.93,0,0,0-2.86,2.94l-1-1.28c1.63-2.51,4.09-5.36,6-5.36,1.42,0,2.16,1.82,2.61,5.71s.83,8.31,1.13,12.59Z"/><g id="Group_14" data-name="Group 14"><path id="Path_19" data-name="Path 19" class="cls-1" d="M111.91,132.16a9.35,9.35,0,0,1-5.27,3.46c-.93,0-1.18-1.06-.65-3.43l1.93-8.29c.43-1.85.35-2.5-.32-2.5-1.57,0-5.82,4.08-7.54,6.93-.35,1.61-1,4.76-1.36,6.57-.82.19-1.82.44-2.61.68l-.28-.24c1.32-6,3.25-15,4.53-21.65a52.52,52.52,0,0,0-6.14-.33H91.55L88,130.49c-.64,3.15-.35,3.36,3,3.61l-.28,1.11h-10L81,134.1c3-.25,3.29-.46,4-3.61l3.75-17.11H86.11c-3,0-3.82.32-4.47,1.05a12.72,12.72,0,0,0-1.78,3.15H78.61c.64-2.14,1.28-4.47,1.71-6.5h.82c.39.85.68.89,1.64.89H97.19c2.71,0,3.29-.11,3.61-.57l.14-.75a9.89,9.89,0,0,1,2.54-.86c.35,0,.39.32.18,1.29-1.06,4.82-2,9.47-3.15,14.5h.07a22.25,22.25,0,0,1,6.72-5.79,4.93,4.93,0,0,1,2.36-.74c1,0,1.93.64,1.14,4l-2,8.44c-.25,1.11-.18,1.36.07,1.36a6.21,6.21,0,0,0,2.53-1.69Z"/><path id="Path_20" data-name="Path 20" class="cls-1" d="M124.86,131.51a10.47,10.47,0,0,1-7.68,4.1c-1.71,0-4-1-4-5.25a11.87,11.87,0,0,1,4.32-9.29,8.93,8.93,0,0,1,5-2,3.09,3.09,0,0,1,3.28,2.88V122c0,3.68-6.15,5.53-9.65,6.39a9.37,9.37,0,0,0,0,1.06c0,1.93.61,3.9,2.79,3.9a8.55,8.55,0,0,0,5.33-2.79Zm-3.68-10.9a3.05,3.05,0,0,0-1.5.42,8.12,8.12,0,0,0-3.36,6.11c5.18-1.32,6.72-3,6.72-4.6a1.73,1.73,0,0,0-1.52-1.92h0a1.41,1.41,0,0,0-.29,0Z"/></g><g id="Group_15" data-name="Group 15"><path id="Path_21" data-name="Path 21" class="cls-1" d="M490.16,126.78a5.06,5.06,0,1,1-5.06-5.06h0a5,5,0,0,1,5.05,4.92A.33.33,0,0,1,490.16,126.78Zm-9.32,0a4.26,4.26,0,1,0,0-.16ZM484,129.7h-.71v-5.85h2.25c1.31,0,1.9.57,1.9,1.62A1.57,1.57,0,0,1,486,127.1l1.74,2.6h-.84l-1.65-2.6H484Zm.95-3.21c.88,0,1.76,0,1.76-1,0-.81-.68-1-1.39-1H484v2Z"/></g><path id="Path_22" data-name="Path 22" class="cls-1" d="M185.38,138.25a11.09,11.09,0,0,1-6.58,3.2c-3,0-3.84-2.71-3.84-5.36a12.18,12.18,0,0,1,0-1.48c4.82-1.18,13.28-3.74,13.28-8.8a4.26,4.26,0,0,0-4.42-4.09h-.11a12.27,12.27,0,0,0-6.93,2.81,16.4,16.4,0,0,0-6,12.79c0,5.9,3.19,7.22,5.56,7.22a14,14,0,0,0,9.85-4.92Zm-5.5-13.77a4.24,4.24,0,0,1,2.06-.59H182a2.39,2.39,0,0,1,2.52,2.25,2.67,2.67,0,0,1,0,.4c0,2.26-2.11,4.53-9.24,6.35A11.07,11.07,0,0,1,179.88,124.48Z"/><path id="Path_23" data-name="Path 23" class="cls-1" d="M197.84,138.32a10,10,0,0,1-3.6,2.44c-.29,0-.49-.29-.19-1.82,2.07-9.54,3.77-17.82,5.74-27.17.25-1.08.2-1.52-.29-1.52a52,52,0,0,1-7.39,1.67l-.2,1.43h1.28c2.32.05,2.61.35,2.11,2.4-1.67,8-3.14,14.72-4.81,22.74-1.08,4.93-.2,6,.79,6a14.11,14.11,0,0,0,7.39-5Z"/><path id="Path_24" data-name="Path 24" class="cls-1" d="M210.08,138.32a9.92,9.92,0,0,1-3.59,2.44c-.3,0-.49-.29-.2-1.82,2.07-9.54,3.78-17.82,5.75-27.17.24-1.08.2-1.52-.29-1.52a52,52,0,0,1-7.39,1.67l-.2,1.43h1.28c2.31.05,2.61.35,2.11,2.4-1.67,8-3.14,14.72-4.81,22.74-1.08,4.93-.2,6,.78,6a14,14,0,0,0,7.39-5Z"/><path id="Path_25" data-name="Path 25" class="cls-1" d="M428.1,138.31a11.38,11.38,0,0,1-3.36,2.35c-.3,0-.4-.44-.1-2.21,1.08-6.1,2.55-12.74,3.39-15.83l-.2-.19a10.37,10.37,0,0,1-1.92-.3,13.84,13.84,0,0,0-3.14-.39h0a15.85,15.85,0,0,0-9.15,3.74,18.39,18.39,0,0,0-6,13.42c0,4,1.63,5.66,3,5.66a8.26,8.26,0,0,0,4.66-2.16,35.76,35.76,0,0,0,6.25-6.64h.1l-.89,4.38c-.7,3.64-.1,4.42.94,4.42a13.75,13.75,0,0,0,7.3-5Zm-5.77-6.65c-1.48,3.25-7.18,9.59-9.2,9.59-.7,0-1.33-1-1.33-3.15a17.2,17.2,0,0,1,5.31-13,6.25,6.25,0,0,1,3.54-1h.05a8,8,0,0,1,3.2.7c-.29,1.45-.9,4.79-1.57,6.86Z"/><path id="Path_26" data-name="Path 26" class="cls-1" d="M252.34,138.25a11.09,11.09,0,0,1-6.58,3.2c-3,0-3.84-2.71-3.84-5.36a14.64,14.64,0,0,1,.05-1.48c4.82-1.18,13.28-3.74,13.28-8.8a4.26,4.26,0,0,0-4.41-4.09h-.12a12.34,12.34,0,0,0-6.93,2.81,16.39,16.39,0,0,0-5.95,12.79c0,5.9,3.19,7.22,5.56,7.22a14,14,0,0,0,9.85-4.92Zm-5.7-13.77a4.24,4.24,0,0,1,2.06-.59h.05a2.39,2.39,0,0,1,2.52,2.25,2.67,2.67,0,0,1,0,.4c0,2.26-2.11,4.53-9.25,6.35A11.13,11.13,0,0,1,246.64,124.48Z"/></g><g id="Group_17" data-name="Group 17"><path id="Path_27" data-name="Path 27" class="cls-1" d="M186.15,27.08l-.56,2.57c-9,.66-10.38,1.43-12.37,13.49l-7,40.39c-2,12-2.85,12.82,6.41,13.49l-.56,2.57H143.18l.57-2.57c9-.67,11.54-1.45,13.65-13.49l8.12-44.85h-.45L127.43,98.36h-2.68L111.28,40.13h-.22L104.14,70a180.58,180.58,0,0,0-4,20.63c-.44,4.47,2.35,5.92,9.6,6.36l-.45,2.58H82.72l.44-2.69c6.13-.1,9-1.76,10.6-5.91q3.48-10.35,5.92-21l6.57-26.89c2.91-11.83,1.12-12.73-8.14-13.5L98.66,27h17.75l14.35,58.23,37-58.23Z"/><path id="Path_28" data-name="Path 28" class="cls-1" d="M266,54.52a20.88,20.88,0,0,1,7.71,1.22,88.19,88.19,0,0,1-4.35,18.63,59,59,0,0,1-8.59,11c-4.35,4.68-9,8-10.71,8-2.11,0-3-3-3-7.35a47.9,47.9,0,0,1,4-18.42,23.81,23.81,0,0,1,10.14-12A11.08,11.08,0,0,1,266,54.52Zm.36,39.82c-1.13,5.36,1,6.58,2.33,6.58A48.41,48.41,0,0,0,285.2,90.33L284,88.09a37.73,37.73,0,0,1-8.37,5.36c-1,0-.77-1.57-.21-5,2.11-12.72,4.92-25.33,7.35-36.7l-.55-.45a20,20,0,0,1-4.35-.67,31.8,31.8,0,0,0-5.91-.78,36.91,36.91,0,0,0-21.75,9.38A42.48,42.48,0,0,0,237.9,89.1c0,9.59,4,11.83,6.47,11.83a29.58,29.58,0,0,0,9.36-5.24A101.15,101.15,0,0,0,269,80.07h.22Z"/><path id="Path_29" data-name="Path 29" class="cls-1" d="M466,54.52a20.82,20.82,0,0,1,7.7,1.22,87.6,87.6,0,0,1-4.36,18.63,58.22,58.22,0,0,1-8.58,11c-4.35,4.68-9,8-10.7,8-2.12,0-3-3-3-7.35a48.31,48.31,0,0,1,4-18.42,23.71,23.71,0,0,1,10.16-12A11.14,11.14,0,0,1,466,54.52Zm.33,39.82c-1.1,5.36,1,6.58,2.35,6.58a48.41,48.41,0,0,0,16.51-10.59L484,88.09a38.39,38.39,0,0,1-8.36,5.36c-1,0-.78-1.57-.23-5,2.11-12.72,4.93-25.33,7.36-36.7l-.55-.45a20,20,0,0,1-4.35-.67,31.8,31.8,0,0,0-5.91-.78,36.93,36.93,0,0,0-21.76,9.38,42.38,42.38,0,0,0-12.27,29.9c0,9.59,4,11.83,6.47,11.83a29.63,29.63,0,0,0,9.37-5.24A101.35,101.35,0,0,0,469,80.07h.21Z"/><path id="Path_30" data-name="Path 30" class="cls-1" d="M432.72,49.82a29.81,29.81,0,0,0-19,8,39.71,39.71,0,0,0-11.83,27.55c0,9.82,4.47,15.51,11.26,15.51A36.6,36.6,0,0,0,434,90.57L432.56,88a23.61,23.61,0,0,1-13.81,6.53c-5.7,0-7.81-5-7.81-11.61a43,43,0,0,1,5.58-21.42c2.56-4.22,5.46-6.68,8.7-6.68A9.9,9.9,0,0,1,433,59.33c1.12,1.55,2.56,1.11,4,.1a6,6,0,0,0,3-4.57C440.08,52.51,436.73,49.82,432.72,49.82Z"/><path id="Path_31" data-name="Path 31" class="cls-1" d="M398.13,88.09a29.34,29.34,0,0,1-8.36,5c-1,0-.67-1.22.1-4.68l8.5-38.61h-1.13l-7.36,3A139.12,139.12,0,0,1,386,69.69c-2.55,5.91-16.73,24.2-22.54,24.2-2.9,0-2.56-3.56-1.1-10.26L368.23,57c1-4.35.9-7.15-2.11-7.15-2.24,0-8.9,4.37-14.72,9.87L352.66,62a18.51,18.51,0,0,1,6.64-4c1,0,.58,2-.43,6.25l-5.25,23.32c-2.68,11.81,1.67,13.36,3,13.36a19,19,0,0,0,9.15-3.79A81.32,81.32,0,0,0,384.06,78h.33L381.28,92.2c-1.32,5.91-.67,8.71,1.8,8.71a49.5,49.5,0,0,0,16.39-10.6Z"/><path id="Path_32" data-name="Path 32" class="cls-1" d="M208.26,88a23.36,23.36,0,0,1-14.56,6.66c-7.26,0-8.48-7.58-8.48-13.39a24.29,24.29,0,0,1,.36-2.68c10.7-3.12,29.55-10.26,29.55-20.4a8.64,8.64,0,0,0-8.87-8.4h-.51a30.88,30.88,0,0,0-16.4,6.82,36.63,36.63,0,0,0-12.93,28c0,13.17,7.25,16.29,11.48,16.29,3.52,0,11.68-1.16,21.78-10.31ZM196.93,55.41a8.51,8.51,0,0,1,3.92-1,5.25,5.25,0,0,1,5.56,4.92,5,5,0,0,1,0,.55c0,6-4.8,10.83-20.3,15.4C188.13,62.89,193.48,57.3,196.93,55.41Z"/><path id="Path_33" data-name="Path 33" class="cls-1" d="M341.28,88.06a23.34,23.34,0,0,1-14.51,6.62c-7.24,0-8.48-7.58-8.48-13.39a24.29,24.29,0,0,1,.36-2.68c10.7-3.12,29.55-10.26,29.55-20.4a8.65,8.65,0,0,0-8.84-8.42h-.54a30.88,30.88,0,0,0-16.39,6.82,36.57,36.57,0,0,0-12.94,28c0,13.18,7.25,16.29,11.49,16.29,3.52,0,11.65-1.15,21.74-10.26ZM330,55.41a8.43,8.43,0,0,1,3.9-1,5.3,5.3,0,0,1,5.58,5v0a4.34,4.34,0,0,1,0,.51c0,6-4.8,10.83-20.3,15.4C321.2,62.89,326.56,57.3,330,55.41Z"/><path id="Path_34" data-name="Path 34" class="cls-1" d="M234.51,90c-5.22,6.33-12.7,11-16,11-2,0-3.88-2.35-1.64-12.6,3.49-16.69,7.78-37.13,11.26-53.72,1-4.3.41-4.92-4.41-5h-2.66l.41-2.51a56.64,56.64,0,0,0,15.36-3.93c1,0,1.12.92.61,3.16-4.09,19.47-8.89,43.08-13.19,63-.62,3.17-.21,3.79.41,3.79a22.39,22.39,0,0,0,8.19-5.73Z"/><path id="Path_35" data-name="Path 35" class="cls-1" d="M306.89,90c-5.22,6.33-12.7,11-16,11-2.05,0-3.89-2.35-1.64-12.6,3.49-16.69,7.77-37.13,11.26-53.72,1-4.3.41-4.92-4.41-5h-2.66l.41-2.51a56.64,56.64,0,0,0,15.36-3.93c1,0,1.13.92.61,3.16-4.09,19.47-8.9,43.08-13.19,63-.62,3.17-.21,3.79.41,3.79a22.39,22.39,0,0,0,8.19-5.73Z"/></g></g><path id="Path_36" data-name="Path 36" class="cls-1" d="M51.74,35.13a2.51,2.51,0,0,1-.89-3.38A29.09,29.09,0,0,0,52.61.48L52.32,0a4,4,0,0,0-1.44,2.84,41.66,41.66,0,0,0,2,3.8c4.51,8.3-.53,24.06-6,25.63C32.61,36.35,14.3,42.82,5.71,60.84h0a.09.09,0,0,0,.08.08h.06c12.27-15.7,35-21,36.88-21.46,1-.23-1.47,2.74-2.07,3.55a16.08,16.08,0,0,1-5.28,2.88C30.53,47.89,9,57.66,1.71,75.24h0a.09.09,0,0,0,.09.08h.05a73.94,73.94,0,0,1,33-22.7c.4-.16.47.05.45.31-.09,1.08-1.67,4-7,7.2C18.46,66,3.07,76.36,0,90.65H0a.09.09,0,0,0,.08.09.09.09,0,0,0,.07,0h0C3.6,83.56,13.39,73.52,26.89,67.65a.23.23,0,0,1,.31.09.19.19,0,0,1,0,.18A15.6,15.6,0,0,1,23,75.1c-4.27,4-20.6,13.13-21.85,29.74h0a.08.08,0,0,0,.08.07.08.08,0,0,0,.08-.06h0C5.21,93.06,19.19,83.76,21.9,82.78c.35-.13.35.12.35.27A10.88,10.88,0,0,1,19,91.31C15.9,93.7,5.46,100.92,4.82,113.4h0a.09.09,0,0,0,.1,0l0,0H5C7,104.66,16.93,98.71,19.1,98c.17,0,.31,0,.35.35A6.77,6.77,0,0,1,16.88,104a19.75,19.75,0,0,0-8.19,18h0a.09.09,0,0,0,.07,0,.11.11,0,0,0,.08,0h0a16,16,0,0,1,9-13.67c.6-.19.7,0,.7.9a8.93,8.93,0,0,1-1.84,5.38,19.47,19.47,0,0,0-3.17,15.83h.07a.1.1,0,0,0,.09-.07h0c-.06-6.75,2.6-10.64,4.63-11.65.39-.18.53-.14.73.65a6.57,6.57,0,0,1-.49,4.71,18.83,18.83,0,0,0,8.8,21.18h0a.09.09,0,0,0,.09-.08h0a.06.06,0,0,0,0-.06h0a21.07,21.07,0,0,1-6.12-15.76c.22-1.68.7-3.76,1.94-2.94a13,13,0,0,1,2.82,8.86h0a.09.09,0,0,0,.08.08.08.08,0,0,0,.07-.05h0a16.06,16.06,0,0,0-3.63-17.13,10.53,10.53,0,0,1-1-6.1c.21-1.13.8-1.61,1.55-1.13a13.84,13.84,0,0,1,5.44,11h0a.12.12,0,0,0,.15.08h0c1.56-5.46,1.25-11-5.14-17.56-2-1.85-.82-7.59-.46-8.91a.82.82,0,0,1,1-.64h0a.8.8,0,0,1,.47.29s9.65,9.34,7.3,19.15h0s0,.08.07.09h.07c3-3.92,3.31-12.27-1.44-20-2.88-4.68-5.47-7.12-5.41-8.8a14.74,14.74,0,0,1,1.15-5.06,1,1,0,0,1,1.27-.42l.11.07c1.74,1.19,13.27,11.42,10,24.31h0a.09.09,0,0,0,.08.09h0c6.6-9.3,2.85-21.72-7.06-31.54-1.41-1.41,0-6.17,1.31-7.7a.66.66,0,0,1,.93-.1h0c6.87,4,16,19,12.45,28.92h0a.09.09,0,0,0,.09.09h.05c7.84-10.13,1-26.59-7.66-37.72-1-1.93,1.27-4.61,1.47-5,.49-.6.71-.54,1.06-.29,12.37,9.54,15.81,26.13,11.91,35h0a.09.09,0,0,0,.08.08h.06c9.22-11.22,5.8-29-7.12-42.68-.85-1-.47-2,.42-3.32a.77.77,0,0,1,1-.34.8.8,0,0,1,.21.15C66,53.58,64.08,67.34,60.78,76.13h0a.09.09,0,0,0,.08.08h0a0,0,0,0,0,.05,0h0C67,69.16,73.39,50,51.74,35.13Z"/><path id="Path_37" data-name="Path 37" class="cls-1" d="M57.34,122.84a24.47,24.47,0,0,1-5.15-19h0a.08.08,0,0,0-.08-.07h-.06c-4,4.75-17,18.38-15.57,31.66,0,.15.16,1.16.17,1.16a12.88,12.88,0,0,0,25.57-2.41A17.25,17.25,0,0,0,57.34,122.84Z"/></g></g></g></g></g></svg>